<svg xmlns="http://www.w3.org/2000/svg" viewBox="0 0 136.7 70.1">
  <path fill="#fff" d="M136.8 70.2H0V0h136.8zM74.2 15.6c0 10.6 0 20.8-.1 31a4.7 4.7 0 0 1-4.5 5c-3.5.4-5.7-.8-6.7-3.8a18.4 18.4 0 0 1-.6-4.7c0-3-1.6-4.4-4.3-4.7a22.6 22.6 0 0 0-4.5-.1c-3.5.3-4.7 1.7-4.7 5.2-.1 11.2 6.9 18.2 18.5 18.8s18.8-5.1 19.2-14.6c.5-12.2.2-24.6 0-36.8-.1-4.8-2.4-6.6-7.1-6.6s-11-.1-16.5 0a18.9 18.9 0 0 0-5.3.8 5.1 5.1 0 0 0 .1 9.7 23.2 23.2 0 0 0 5.9.7zM115.5 4c-3.4.4-5.8.5-8.1.9s-6.2 2.1-8.1 5.2c-3.7 5.9-2.8 14.5 2.4 19.2a80.1 80.1 0 0 0 7.5 5.5c2.4 1.8 5.1 3.3 7.1 5.5a13 13 0 0 1 3.1 6.2c.7 3.7-1.4 6-4.6 6.3s-5.8-.8-6.4-5.1-3.3-6-6.8-5.6-5.4 2.8-5 6.8c.7 7.4 5.4 12.2 13.9 13.2 11.4 1.2 21.9-3.5 20.9-17.6a15.5 15.5 0 0 0-6.4-11.4c-2.7-2.1-5.7-3.7-8.5-5.7s-4.9-3.1-6.3-5.3-1-4.6-.5-6.7 2.9-2.3 5-2.2 4.4 1 5 5.2a5.4 5.4 0 0 0 5.5 4.9 5.4 5.4 0 0 0 5.6-4.7c.6-5.3-2.3-10.7-7.2-12.6a59.1 59.1 0 0 0-8.1-2zm-83 11.8c3.2-.2 6.1-.3 8.9-.7s4.7-2.4 4.7-5.3-1.5-4.5-4.8-5.1a21.8 21.8 0 0 0-4.4-.4q-10.4-.2-20.7 0a38.8 38.8 0 0 0-4.8.4C8.5 5.2 7 6.8 6.9 9.8s1.3 4.7 4.6 5.2a79.5 79.5 0 0 0 8.9.8v33.6c0 2.3 0 4.6.2 6.9.5 4.4 3.8 6.4 8 5.1s3.9-2.6 3.9-6.9V15.8z"/>
  <path d="M74.2 15.6H63.6a23.2 23.2 0 0 1-5.9-.7 5.1 5.1 0 0 1-.1-9.7 18.9 18.9 0 0 1 5.3-.8q8.3-.2 16.5 0c4.7 0 7 1.8 7.1 6.6.2 12.2.5 24.6 0 36.8-.4 9.5-8.4 15.2-19.2 14.6s-18.6-7.6-18.5-18.8c0-3.5 1.2-4.9 4.7-5.2a22.6 22.6 0 0 1 4.5.1c2.7.3 4.3 1.7 4.3 4.7a18.4 18.4 0 0 0 .6 4.7c1 3 3.2 4.2 6.7 3.8a4.7 4.7 0 0 0 4.5-5c.1-10.3.1-20.5.1-31.1zM115.5 4a59.1 59.1 0 0 1 8.1 2c4.9 1.9 7.8 7.3 7.2 12.6a5.4 5.4 0 0 1-5.6 4.7 5.4 5.4 0 0 1-5.5-4.9c-.6-4.2-1.5-5.2-5-5.2s-4.5-.1-5 2.2-.6 5 .5 6.7 4.1 3.7 6.3 5.3 5.8 3.6 8.5 5.7a15.5 15.5 0 0 1 6.4 11.4c1 14.1-9.5 18.8-20.9 17.6-8.5-1-13.2-5.8-13.9-13.2-.4-4 1.4-6.4 5-6.8s6.3 1.9 6.8 5.6 2.1 5.5 6.4 5.1 5.3-2.6 4.6-6.3a13 13 0 0 0-3.1-6.2c-2-2.2-4.7-3.7-7.1-5.5a80.1 80.1 0 0 1-7.5-5.5c-5.2-4.7-6.1-13.3-2.4-19.2 1.9-3.1 4.8-4.5 8.1-5.2s4.7-.5 8.1-.9zM32.5 15.8v38.7c0 4.3-1.1 6.1-3.9 6.9s-7.5-.7-8-5.1c-.2-2.3-.2-4.6-.2-6.9V15.8a79.5 79.5 0 0 1-8.9-.8c-3.3-.5-4.7-2.3-4.6-5.2s1.6-4.6 4.5-5.1a38.8 38.8 0 0 1 4.8-.4q10.4-.2 20.7 0a21.8 21.8 0 0 1 4.4.4c3.3.6 4.8 2.2 4.8 5.1s-1.4 4.7-4.7 5.3-5.7.5-8.9.7z"/>
</svg>
